# xmcd CD database file
#
# Track frame offsets:
#	150
#	14359
#	29473
#	44183
#	56052
#	72630
#	88938
#	105595
#	118045
#	133059
#	149044
#	163227
#	177157
#	193119
#	207672
#	224629
#
# Disc length: 3199 seconds
#
# Revision: 0
# Processed by: cddbd v1.5.2PL0 Copyright (c) Steve Scherf et al.
# Submitted via: CDex 1.70beta2
#
DISCID=110c7d10
DTITLE=Roy Eldridge - Jazz Roads CD114 - Swing - Vol.6 (1952-53)
DYEAR=2006
DGENRE=Jazz
TTITLE0=The Roy Eldridge Quintet - Roy's Riff
TTITLE1=The Roy Eldridge Quintet - Wrap Your Troubles In Dreams
TTITLE2=The Roy Eldridge Quintet - Rockin' Chair
TTITLE3=The Roy Eldridge Quintet - Little Jazz
TTITLE4=The Roy Eldridge Quintet - Love For Sale
TTITLE5=The Roy Eldridge Quintet - Dale's Wail
TTITLE6=The Roy Eldridge Quintet - The Man I Love
TTITLE7=The Roy Eldridge Quintet - Oscar's Arrangement
TTITLE8=The Roy Eldridge Quintet - Willow Weep For Me
TTITLE9=The Roy Eldridge Quintet - Somebody Loves Me
TTITLE10=The Roy Eldridge Quintet - When Your Lover Has Gone
TTITLE11=The Roy Eldridge Quintet - When It's Sleepy Time Down South
TTITLE12=The Roy Eldridge Quintet - Feeling A Draft
TTITLE13=The Roy Eldridge Quintet - Don't Blame Me
TTITLE14=The Roy Eldridge Quintet - Echoes Of Harlem
TTITLE15=The Roy Eldridge Quintet - I Can't Get Started
EXTD=YEAR: 2006
EXTT0=
EXTT1=
EXTT2=
EXTT3=
EXTT4=
EXTT5=
EXTT6=
EXTT7=
EXTT8=
EXTT9=
EXTT10=
EXTT11=
EXTT12=
EXTT13=
EXTT14=
EXTT15=
PLAYORDER=
